<svg xmlns="http://www.w3.org/2000/svg" xml:space="preserve" viewBox="0 0 256 256">
  <switch>
    <g>
      <path fill="#8b5be4" d="M0 0h256v256H0z"/>
        <path fill="#fff"
              d="M62.1 141.4H54c-12.6 0-3.4-26.9 7.2-26.9H74c2 0 5.7.4 7.4-4.7l2.7-7.9H66.6c-9.5 0-16.8 3.3-22.2 9-9.2 9.6-12.3 24.6-10.1 31.8 2.1 6.6 7.8 11 16.7 11.1l6.9.1h8.6l2.1-6.3c1.6-4.5-1.9-6.2-6.5-6.2zm98.2-11.1 2.6-8.6h-28.1c-4.7 0-6.8 1.3-7.6 4l-2.6 8.6h28.1c4.7 0 6.8-1.3 7.6-4zm-39.9 15.1-2.6 8.6h28.1c4.6 0 6.8-1.3 7.6-4l2.6-8.6H128c-4.6 0-6.7 1.3-7.6 4zm46.5-34.8 2.6-8.6h-28.1c-4.7 0-6.8 1.3-7.6 4l-2.6 8.6h28.1c4.6 0 6.7-1.3 7.6-4zm-42.5 1.7c-1.2-8-5.4-10.3-15.8-10.3H89.8l-11 32.3h6.9c4.1 0 6.2.1 8.4-5.9l4.6-13.8h7c6 0 4.6 7.5 1.6 14.8-2.7 6.4-7.4 12.1-13 12.1H82.6c-4.7 0-6.8 1.3-7.7 4l-2.9 8.6h8.6l8.4-.1c7.4-.1 13.5-.6 20.6-7 7.6-6.9 16.3-24.5 14.8-34.7zM219 102h-16.3l-15.3 16.4c-1.8 1.9-3.6 3.8-5.4 6h-.2l7.6-22.4h-13.3l-17.9 52h13.3l5.7-16.4 5.9-5 4.7 14.8c1.5 4.6 3 6.6 6.2 6.6h10.2l-10.4-29.1L219 102z"/>
    </g>
  </switch>
</svg>
